<svg width="66" height="75" viewBox="0 0 66 75" fill="none" xmlns="http://www.w3.org/2000/svg">
<g filter="url(#filter0_f_1_181)">
<ellipse cx="18" cy="1" rx="18" ry="1" transform="matrix(-1 0 0 1 51 66)" fill="#0E0E0E"/>
</g>
<g filter="url(#filter1_d_1_181)">
<path fill-rule="evenodd" clip-rule="evenodd" d="M33 8C46.8071 8 58 19.1929 58 33C58 39.9966 55.1258 46.322 50.4937 50.8597C50.3347 51.067 50.1603 51.2663 49.9706 51.456L35.8285 65.5982C34.2664 67.1602 31.7337 67.1602 30.1716 65.5982L16.0295 51.456C15.8399 51.2664 15.6656 51.0673 15.5067 50.8602C10.8744 46.3224 8 39.9969 8 33C8 19.1929 19.1929 8 33 8Z" fill="white"/>
</g>
<rect width="40" height="40" rx="20" transform="matrix(-1 0 0 1 53 13)" fill="url(#paint0_linear_1_181)"/>
<path d="M27.43 41.26C26.5433 41.26 25.74 41.0467 25.02 40.62C24.3067 40.1867 23.74 39.6133 23.32 38.9C22.9067 38.18 22.7 37.3933 22.7 36.54H24.78C24.78 37.0267 24.9 37.47 25.14 37.87C25.38 38.27 25.7 38.59 26.1 38.83C26.5 39.0633 26.9433 39.18 27.43 39.18C27.91 39.18 28.35 39.0633 28.75 38.83C29.15 38.59 29.47 38.27 29.71 37.87C29.95 37.47 30.07 37.0267 30.07 36.54C30.07 36.0533 29.96 35.61 29.74 35.21C29.52 34.8033 29.19 34.48 28.75 34.24C28.31 33.9933 27.75 33.87 27.07 33.87H23.54L24.96 27H31.73V29.08H26.65L26.1 31.79L27.31 31.81C28.2633 31.83 29.1 32.05 29.82 32.47C30.5467 32.8833 31.1167 33.4433 31.53 34.15C31.9433 34.85 32.15 35.6467 32.15 36.54C32.15 37.1867 32.0267 37.7967 31.78 38.37C31.5333 38.9367 31.1933 39.4367 30.76 39.87C30.3333 40.3033 29.8333 40.6433 29.26 40.89C28.6933 41.1367 28.0833 41.26 27.43 41.26ZM38.7722 41.26C37.9455 41.26 37.1989 41.0733 36.5322 40.7C35.8722 40.32 35.3022 39.7967 34.8222 39.13C34.3422 38.4633 33.9755 37.6933 33.7222 36.82C33.4689 35.94 33.3422 35 33.3422 34C33.3422 33 33.4689 32.06 33.7222 31.18C33.9755 30.3 34.3422 29.53 34.8222 28.87C35.3022 28.2033 35.8722 27.6833 36.5322 27.31C37.1989 26.93 37.9455 26.74 38.7722 26.74C39.5855 26.74 40.3255 26.93 40.9922 27.31C41.6589 27.6833 42.2255 28.2033 42.6922 28.87C43.1655 29.53 43.5289 30.3 43.7822 31.18C44.0355 32.06 44.1622 33 44.1622 34C44.1622 35 44.0355 35.94 43.7822 36.82C43.5289 37.6933 43.1655 38.4633 42.6922 39.13C42.2255 39.7967 41.6589 40.32 40.9922 40.7C40.3255 41.0733 39.5855 41.26 38.7722 41.26ZM38.7722 39.18C39.5389 39.18 40.1755 38.94 40.6822 38.46C41.1955 37.9733 41.5789 37.3367 41.8322 36.55C42.0855 35.7633 42.2122 34.9133 42.2122 34C42.2122 33.04 42.0789 32.17 41.8122 31.39C41.5522 30.6033 41.1655 29.98 40.6522 29.52C40.1455 29.0533 39.5189 28.82 38.7722 28.82C38.1789 28.82 37.6622 28.96 37.2222 29.24C36.7889 29.52 36.4289 29.9033 36.1422 30.39C35.8622 30.8767 35.6489 31.43 35.5022 32.05C35.3622 32.67 35.2922 33.32 35.2922 34C35.2922 34.9133 35.4222 35.7633 35.6822 36.55C35.9422 37.3367 36.3289 37.9733 36.8422 38.46C37.3622 38.94 38.0055 39.18 38.7722 39.18Z" fill="white"/>
<defs>
<filter id="filter0_f_1_181" x="10" y="61" width="46" height="12" filterUnits="userSpaceOnUse" color-interpolation-filters="sRGB">
<feFlood flood-opacity="0" result="BackgroundImageFix"/>
<feBlend mode="normal" in="SourceGraphic" in2="BackgroundImageFix" result="shape"/>
<feGaussianBlur stdDeviation="2.5" result="effect1_foregroundBlur_1_181"/>
</filter>
<filter id="filter1_d_1_181" x="0" y="0" width="66" height="74.7697" filterUnits="userSpaceOnUse" color-interpolation-filters="sRGB">
<feFlood flood-opacity="0" result="BackgroundImageFix"/>
<feColorMatrix in="SourceAlpha" type="matrix" values="0 0 0 0 0 0 0 0 0 0 0 0 0 0 0 0 0 0 127 0" result="hardAlpha"/>
<feOffset/>
<feGaussianBlur stdDeviation="4"/>
<feComposite in2="hardAlpha" operator="out"/>
<feColorMatrix type="matrix" values="0 0 0 0 0 0 0 0 0 0 0 0 0 0 0 0 0 0 0.4 0"/>
<feBlend mode="normal" in2="BackgroundImageFix" result="effect1_dropShadow_1_181"/>
<feBlend mode="normal" in="SourceGraphic" in2="effect1_dropShadow_1_181" result="shape"/>
</filter>
<linearGradient id="paint0_linear_1_181" x1="20" y1="0" x2="20" y2="40" gradientUnits="userSpaceOnUse">
<stop stop-color="#006FE8"/>
<stop offset="1" stop-color="#54A6FF"/>
</linearGradient>
</defs>
</svg>
