<svg width="66" height="75" viewBox="0 0 66 75" fill="none" xmlns="http://www.w3.org/2000/svg">
<g filter="url(#filter0_d_71_557)">
<path fill-rule="evenodd" clip-rule="evenodd" d="M33 8C46.8071 8 58 19.1929 58 33C58 39.9966 55.1258 46.322 50.4937 50.8597C50.3347 51.067 50.1603 51.2663 49.9706 51.456L35.8285 65.5982C34.2664 67.1602 31.7337 67.1602 30.1716 65.5982L16.0295 51.456C15.8399 51.2664 15.6656 51.0673 15.5067 50.8602C10.8744 46.3224 8 39.9969 8 33C8 19.1929 19.1929 8 33 8Z" fill="white"/>
</g>
<rect width="40" height="40" rx="20" transform="matrix(-1 0 0 1 53 13)" fill="url(#paint0_linear_71_557)"/>
<defs>
<filter id="filter0_d_71_557" x="0" y="0" width="66" height="74.7697" filterUnits="userSpaceOnUse" color-interpolation-filters="sRGB">
<feFlood flood-opacity="0" result="BackgroundImageFix"/>
<feColorMatrix in="SourceAlpha" type="matrix" values="0 0 0 0 0 0 0 0 0 0 0 0 0 0 0 0 0 0 127 0" result="hardAlpha"/>
<feOffset/>
<feGaussianBlur stdDeviation="4"/>
<feComposite in2="hardAlpha" operator="out"/>
<feColorMatrix type="matrix" values="0 0 0 0 0 0 0 0 0 0 0 0 0 0 0 0 0 0 0.4 0"/>
<feBlend mode="normal" in2="BackgroundImageFix" result="effect1_dropShadow_71_557"/>
<feBlend mode="normal" in="SourceGraphic" in2="effect1_dropShadow_71_557" result="shape"/>
</filter>
<linearGradient id="paint0_linear_71_557" x1="20" y1="0" x2="20" y2="40" gradientUnits="userSpaceOnUse">
<stop stop-color="#2FB551"/>
<stop offset="1" stop-color="#77D990"/>
</linearGradient>
</defs>
</svg>
