<svg width="66" height="75" viewBox="0 0 66 75" fill="none" xmlns="http://www.w3.org/2000/svg">
<g filter="url(#filter0_f_1_180)">
<ellipse cx="18" cy="1" rx="18" ry="1" transform="matrix(-1 0 0 1 51 66)" fill="#0E0E0E"/>
</g>
<g filter="url(#filter1_d_1_180)">
<path fill-rule="evenodd" clip-rule="evenodd" d="M33 8C46.8071 8 58 19.1929 58 33C58 39.9966 55.1258 46.322 50.4937 50.8597C50.3347 51.067 50.1603 51.2663 49.9706 51.456L35.8285 65.5982C34.2664 67.1602 31.7337 67.1602 30.1716 65.5982L16.0295 51.456C15.8399 51.2664 15.6656 51.0673 15.5067 50.8602C10.8744 46.3224 8 39.9969 8 33C8 19.1929 19.1929 8 33 8Z" fill="white"/>
</g>
<rect width="40" height="40" rx="20" transform="matrix(-1 0 0 1 53 13)" fill="url(#paint0_linear_1_180)"/>
<path d="M26.47 41V29.08H24.8L25.37 27H28.55V41H26.47ZM36.1823 41.26C35.3557 41.26 34.609 41.0733 33.9423 40.7C33.2823 40.32 32.7123 39.7967 32.2323 39.13C31.7523 38.4633 31.3857 37.6933 31.1323 36.82C30.879 35.94 30.7523 35 30.7523 34C30.7523 33 30.879 32.06 31.1323 31.18C31.3857 30.3 31.7523 29.53 32.2323 28.87C32.7123 28.2033 33.2823 27.6833 33.9423 27.31C34.609 26.93 35.3557 26.74 36.1823 26.74C36.9957 26.74 37.7357 26.93 38.4023 27.31C39.069 27.6833 39.6357 28.2033 40.1023 28.87C40.5757 29.53 40.939 30.3 41.1923 31.18C41.4457 32.06 41.5723 33 41.5723 34C41.5723 35 41.4457 35.94 41.1923 36.82C40.939 37.6933 40.5757 38.4633 40.1023 39.13C39.6357 39.7967 39.069 40.32 38.4023 40.7C37.7357 41.0733 36.9957 41.26 36.1823 41.26ZM36.1823 39.18C36.949 39.18 37.5857 38.94 38.0923 38.46C38.6057 37.9733 38.989 37.3367 39.2423 36.55C39.4957 35.7633 39.6223 34.9133 39.6223 34C39.6223 33.04 39.489 32.17 39.2223 31.39C38.9623 30.6033 38.5757 29.98 38.0623 29.52C37.5557 29.0533 36.929 28.82 36.1823 28.82C35.589 28.82 35.0723 28.96 34.6323 29.24C34.199 29.52 33.839 29.9033 33.5523 30.39C33.2723 30.8767 33.059 31.43 32.9123 32.05C32.7723 32.67 32.7023 33.32 32.7023 34C32.7023 34.9133 32.8323 35.7633 33.0923 36.55C33.3523 37.3367 33.739 37.9733 34.2523 38.46C34.7723 38.94 35.4157 39.18 36.1823 39.18Z" fill="white"/>
<defs>
<filter id="filter0_f_1_180" x="10" y="61" width="46" height="12" filterUnits="userSpaceOnUse" color-interpolation-filters="sRGB">
<feFlood flood-opacity="0" result="BackgroundImageFix"/>
<feBlend mode="normal" in="SourceGraphic" in2="BackgroundImageFix" result="shape"/>
<feGaussianBlur stdDeviation="2.5" result="effect1_foregroundBlur_1_180"/>
</filter>
<filter id="filter1_d_1_180" x="0" y="0" width="66" height="74.7697" filterUnits="userSpaceOnUse" color-interpolation-filters="sRGB">
<feFlood flood-opacity="0" result="BackgroundImageFix"/>
<feColorMatrix in="SourceAlpha" type="matrix" values="0 0 0 0 0 0 0 0 0 0 0 0 0 0 0 0 0 0 127 0" result="hardAlpha"/>
<feOffset/>
<feGaussianBlur stdDeviation="4"/>
<feComposite in2="hardAlpha" operator="out"/>
<feColorMatrix type="matrix" values="0 0 0 0 0 0 0 0 0 0 0 0 0 0 0 0 0 0 0.4 0"/>
<feBlend mode="normal" in2="BackgroundImageFix" result="effect1_dropShadow_1_180"/>
<feBlend mode="normal" in="SourceGraphic" in2="effect1_dropShadow_1_180" result="shape"/>
</filter>
<linearGradient id="paint0_linear_1_180" x1="20" y1="0" x2="20" y2="40" gradientUnits="userSpaceOnUse">
<stop stop-color="#2FB551"/>
<stop offset="1" stop-color="#77D990"/>
</linearGradient>
</defs>
</svg>
