<svg width="66" height="75" viewBox="0 0 66 75" fill="none" xmlns="http://www.w3.org/2000/svg">
<g filter="url(#filter0_f_1_182)">
<ellipse cx="18" cy="1" rx="18" ry="1" transform="matrix(-1 0 0 1 51 66)" fill="#0E0E0E"/>
</g>
<g filter="url(#filter1_d_1_182)">
<path fill-rule="evenodd" clip-rule="evenodd" d="M33 8C46.8071 8 58 19.1929 58 33C58 39.9966 55.1258 46.322 50.4937 50.8597C50.3347 51.067 50.1603 51.2663 49.9706 51.456L35.8285 65.5982C34.2664 67.1602 31.7337 67.1602 30.1716 65.5982L16.0295 51.456C15.8399 51.2664 15.6656 51.0673 15.5067 50.8602C10.8744 46.3224 8 39.9969 8 33C8 19.1929 19.1929 8 33 8Z" fill="white"/>
</g>
<rect width="40" height="40" rx="20" transform="matrix(-1 0 0 1 53 13)" fill="url(#paint0_linear_1_182)"/>
<path d="M16.8 41V39.15C17.2733 38.7567 17.8167 38.3 18.43 37.78C19.0433 37.2533 19.6667 36.6967 20.3 36.11C20.9333 35.5167 21.5167 34.9267 22.05 34.34C22.5833 33.7467 23.0133 33.1867 23.34 32.66C23.6733 32.1267 23.84 31.6633 23.84 31.27C23.84 30.8233 23.73 30.4167 23.51 30.05C23.2967 29.6767 23.0067 29.38 22.64 29.16C22.2733 28.9333 21.8667 28.82 21.42 28.82C20.9733 28.82 20.5633 28.9333 20.19 29.16C19.8233 29.38 19.5267 29.6767 19.3 30.05C19.08 30.4167 18.97 30.8233 18.97 31.27H16.89C16.89 30.4233 17.0967 29.66 17.51 28.98C17.93 28.2933 18.48 27.75 19.16 27.35C19.8467 26.9433 20.6 26.74 21.42 26.74C22.2467 26.74 23 26.9433 23.68 27.35C24.36 27.7567 24.9033 28.3033 25.31 28.99C25.7167 29.67 25.92 30.43 25.92 31.27C25.92 31.7367 25.8233 32.2167 25.63 32.71C25.4367 33.2033 25.1667 33.7067 24.82 34.22C24.48 34.7333 24.0833 35.2533 23.63 35.78C23.1767 36.3067 22.69 36.8333 22.17 37.36C21.65 37.8867 21.12 38.4067 20.58 38.92H26.04V41H16.8ZM32.7527 41.26C31.926 41.26 31.1793 41.0733 30.5127 40.7C29.8527 40.32 29.2827 39.7967 28.8027 39.13C28.3227 38.4633 27.956 37.6933 27.7027 36.82C27.4493 35.94 27.3227 35 27.3227 34C27.3227 33 27.4493 32.06 27.7027 31.18C27.956 30.3 28.3227 29.53 28.8027 28.87C29.2827 28.2033 29.8527 27.6833 30.5127 27.31C31.1793 26.93 31.926 26.74 32.7527 26.74C33.566 26.74 34.306 26.93 34.9727 27.31C35.6393 27.6833 36.206 28.2033 36.6727 28.87C37.146 29.53 37.5093 30.3 37.7627 31.18C38.016 32.06 38.1427 33 38.1427 34C38.1427 35 38.016 35.94 37.7627 36.82C37.5093 37.6933 37.146 38.4633 36.6727 39.13C36.206 39.7967 35.6393 40.32 34.9727 40.7C34.306 41.0733 33.566 41.26 32.7527 41.26ZM32.7527 39.18C33.5193 39.18 34.156 38.94 34.6627 38.46C35.176 37.9733 35.5593 37.3367 35.8127 36.55C36.066 35.7633 36.1927 34.9133 36.1927 34C36.1927 33.04 36.0593 32.17 35.7927 31.39C35.5327 30.6033 35.146 29.98 34.6327 29.52C34.126 29.0533 33.4993 28.82 32.7527 28.82C32.1593 28.82 31.6427 28.96 31.2027 29.24C30.7693 29.52 30.4093 29.9033 30.1227 30.39C29.8427 30.8767 29.6293 31.43 29.4827 32.05C29.3427 32.67 29.2727 33.32 29.2727 34C29.2727 34.9133 29.4027 35.7633 29.6627 36.55C29.9227 37.3367 30.3093 37.9733 30.8227 38.46C31.3427 38.94 31.986 39.18 32.7527 39.18ZM44.3933 41.26C43.5666 41.26 42.8199 41.0733 42.1533 40.7C41.4933 40.32 40.9233 39.7967 40.4433 39.13C39.9633 38.4633 39.5966 37.6933 39.3433 36.82C39.0899 35.94 38.9633 35 38.9633 34C38.9633 33 39.0899 32.06 39.3433 31.18C39.5966 30.3 39.9633 29.53 40.4433 28.87C40.9233 28.2033 41.4933 27.6833 42.1533 27.31C42.8199 26.93 43.5666 26.74 44.3933 26.74C45.2066 26.74 45.9466 26.93 46.6133 27.31C47.2799 27.6833 47.8466 28.2033 48.3133 28.87C48.7866 29.53 49.1499 30.3 49.4033 31.18C49.6566 32.06 49.7833 33 49.7833 34C49.7833 35 49.6566 35.94 49.4033 36.82C49.1499 37.6933 48.7866 38.4633 48.3133 39.13C47.8466 39.7967 47.2799 40.32 46.6133 40.7C45.9466 41.0733 45.2066 41.26 44.3933 41.26ZM44.3933 39.18C45.1599 39.18 45.7966 38.94 46.3033 38.46C46.8166 37.9733 47.1999 37.3367 47.4533 36.55C47.7066 35.7633 47.8333 34.9133 47.8333 34C47.8333 33.04 47.6999 32.17 47.4333 31.39C47.1733 30.6033 46.7866 29.98 46.2733 29.52C45.7666 29.0533 45.1399 28.82 44.3933 28.82C43.7999 28.82 43.2833 28.96 42.8433 29.24C42.4099 29.52 42.0499 29.9033 41.7633 30.39C41.4833 30.8767 41.2699 31.43 41.1233 32.05C40.9833 32.67 40.9133 33.32 40.9133 34C40.9133 34.9133 41.0433 35.7633 41.3033 36.55C41.5633 37.3367 41.9499 37.9733 42.4633 38.46C42.9833 38.94 43.6266 39.18 44.3933 39.18Z" fill="white"/>
<defs>
<filter id="filter0_f_1_182" x="10" y="61" width="46" height="12" filterUnits="userSpaceOnUse" color-interpolation-filters="sRGB">
<feFlood flood-opacity="0" result="BackgroundImageFix"/>
<feBlend mode="normal" in="SourceGraphic" in2="BackgroundImageFix" result="shape"/>
<feGaussianBlur stdDeviation="2.5" result="effect1_foregroundBlur_1_182"/>
</filter>
<filter id="filter1_d_1_182" x="0" y="0" width="66" height="74.7697" filterUnits="userSpaceOnUse" color-interpolation-filters="sRGB">
<feFlood flood-opacity="0" result="BackgroundImageFix"/>
<feColorMatrix in="SourceAlpha" type="matrix" values="0 0 0 0 0 0 0 0 0 0 0 0 0 0 0 0 0 0 127 0" result="hardAlpha"/>
<feOffset/>
<feGaussianBlur stdDeviation="4"/>
<feComposite in2="hardAlpha" operator="out"/>
<feColorMatrix type="matrix" values="0 0 0 0 0 0 0 0 0 0 0 0 0 0 0 0 0 0 0.4 0"/>
<feBlend mode="normal" in2="BackgroundImageFix" result="effect1_dropShadow_1_182"/>
<feBlend mode="normal" in="SourceGraphic" in2="effect1_dropShadow_1_182" result="shape"/>
</filter>
<linearGradient id="paint0_linear_1_182" x1="20" y1="0" x2="20" y2="40" gradientUnits="userSpaceOnUse">
<stop stop-color="#E8294D"/>
<stop offset="1" stop-color="#FF728D"/>
</linearGradient>
</defs>
</svg>
