<svg width="24" height="24" viewBox="0 0 24 24" fill="none" xmlns="http://www.w3.org/2000/svg">
<path d="M7.3906 17.4711L7.39055 17.471L7.38237 17.4757L5.03237 18.8156L5.0314 18.8162C4.30552 19.2323 3.75697 19.2076 3.42111 19.0126C3.0851 18.8175 2.79004 18.3521 2.79004 17.51V7.78C2.79004 7.57477 2.86695 7.30853 3.01724 7.05015C3.16731 6.79216 3.36257 6.59014 3.54811 6.48412L3.54854 6.48388L7.50004 4.22066V17.3813C7.49931 17.3834 7.49723 17.3881 7.49191 17.3955C7.47937 17.4131 7.45444 17.4371 7.41666 17.4571L7.65024 17.8992L7.41665 17.4571L7.3906 17.4711Z" fill="#C3E6BD" stroke="#3DAE2B"/>
<path d="M14.5 6.55034V19.7035L10.25 17.6559L10.25 4.44558L14.5 6.55034Z" fill="#C3E6BD" stroke="#3DAE2B"/>
<path d="M20.7419 17.5159L20.7414 17.5162L17.25 19.5172L17.25 6.33032L19.2579 5.18424L19.2586 5.1838C19.9845 4.76774 20.5331 4.79238 20.8689 4.9874C21.2049 5.1825 21.5 5.64792 21.5 6.49V16.22C21.5 16.4252 21.4231 16.6915 21.2728 16.9499C21.1227 17.2078 20.9275 17.4099 20.7419 17.5159Z" fill="#C3E6BD" stroke="#3DAE2B"/>
</svg>
