<svg width="24" height="24" viewBox="0 0 24 24" fill="none" xmlns="http://www.w3.org/2000/svg">
<path d="M21.1667 8.58084V4.87751C21.1667 3.42001 20.58 2.83334 19.1225 2.83334H15.4192C13.9617 2.83334 13.375 3.42001 13.375 4.87751V8.58084C13.375 10.0383 13.9617 10.625 15.4192 10.625H19.1225C20.58 10.625 21.1667 10.0383 21.1667 8.58084Z" stroke="#6B6B6B" stroke-width="1.375" stroke-linecap="round" stroke-linejoin="round"/>
<path d="M10.6252 8.81001V4.64834C10.6252 3.35584 10.0385 2.83334 8.581 2.83334H4.87766C3.42016 2.83334 2.8335 3.35584 2.8335 4.64834V8.80084C2.8335 10.1025 3.42016 10.6158 4.87766 10.6158H8.581C10.0385 10.625 10.6252 10.1025 10.6252 8.81001Z" stroke="#6B6B6B" stroke-width="1.375" stroke-linecap="round" stroke-linejoin="round"/>
<path d="M10.6252 19.1225V15.4192C10.6252 13.9617 10.0385 13.375 8.581 13.375H4.87766C3.42016 13.375 2.8335 13.9617 2.8335 15.4192V19.1225C2.8335 20.58 3.42016 21.1667 4.87766 21.1667H8.581C10.0385 21.1667 10.6252 20.58 10.6252 19.1225Z" stroke="#6B6B6B" stroke-width="1.375" stroke-linecap="round" stroke-linejoin="round"/>
<path d="M14.75 15.2083H20.25" stroke="#6B6B6B" stroke-width="1.375" stroke-linecap="round"/>
<path d="M14.75 18.875H20.25" stroke="#6B6B6B" stroke-width="1.375" stroke-linecap="round"/>
</svg>
