<svg width="50" height="60" viewBox="0 0 50 60" fill="none" xmlns="http://www.w3.org/2000/svg">
<g filter="url(#filter0_d_1_186)">
<path d="M42 37.5C42 28.3873 34.6127 21 25.5 21C16.3873 21 9 28.3873 9 37.5C9 46.6127 16.3873 54 25.5 54C34.6127 54 42 46.6127 42 37.5Z" fill="white"/>
</g>
<rect width="26.4" height="26.4" rx="13.2" transform="matrix(-1 0 0 1 38.7 24.3)" fill="url(#paint0_linear_1_186)"/>
<g filter="url(#filter1_d_1_186)">
<path d="M30.7222 13.3513C31.4254 13.4744 31.8697 12.6197 31.3649 12.1149L25.7667 6.51667C25.4813 6.23132 25.0187 6.23132 24.7333 6.51667L19.1351 12.1149C18.6303 12.6197 19.0746 13.4744 19.7778 13.3513L24.998 12.4375C25.1647 12.4083 25.3353 12.4083 25.502 12.4375L30.7222 13.3513Z" fill="url(#paint1_linear_1_186)"/>
</g>
<defs>
<filter id="filter0_d_1_186" x="3.72" y="15.72" width="43.56" height="43.56" filterUnits="userSpaceOnUse" color-interpolation-filters="sRGB">
<feFlood flood-opacity="0" result="BackgroundImageFix"/>
<feColorMatrix in="SourceAlpha" type="matrix" values="0 0 0 0 0 0 0 0 0 0 0 0 0 0 0 0 0 0 127 0" result="hardAlpha"/>
<feOffset/>
<feGaussianBlur stdDeviation="2.64"/>
<feComposite in2="hardAlpha" operator="out"/>
<feColorMatrix type="matrix" values="0 0 0 0 0 0 0 0 0 0 0 0 0 0 0 0 0 0 0.4 0"/>
<feBlend mode="normal" in2="BackgroundImageFix" result="effect1_dropShadow_1_186"/>
<feBlend mode="normal" in="SourceGraphic" in2="effect1_dropShadow_1_186" result="shape"/>
</filter>
<filter id="filter1_d_1_186" x="17.4571" y="5.20664" width="15.5859" height="9.98331" filterUnits="userSpaceOnUse" color-interpolation-filters="sRGB">
<feFlood flood-opacity="0" result="BackgroundImageFix"/>
<feColorMatrix in="SourceAlpha" type="matrix" values="0 0 0 0 0 0 0 0 0 0 0 0 0 0 0 0 0 0 127 0" result="hardAlpha"/>
<feOffset dy="0.365339"/>
<feGaussianBlur stdDeviation="0.730677"/>
<feComposite in2="hardAlpha" operator="out"/>
<feColorMatrix type="matrix" values="0 0 0 0 0.85098 0 0 0 0 0.85098 0 0 0 0 0.85098 0 0 0 0.25 0"/>
<feBlend mode="normal" in2="BackgroundImageFix" result="effect1_dropShadow_1_186"/>
<feBlend mode="normal" in="SourceGraphic" in2="effect1_dropShadow_1_186" result="shape"/>
</filter>
<linearGradient id="paint0_linear_1_186" x1="13.2" y1="0" x2="13.2" y2="26.4" gradientUnits="userSpaceOnUse">
<stop stop-color="#818181"/>
<stop offset="1" stop-color="#4B4B4B"/>
</linearGradient>
<linearGradient id="paint1_linear_1_186" x1="29.125" y1="9.875" x2="21.375" y2="17.625" gradientUnits="userSpaceOnUse">
<stop stop-color="#818181"/>
<stop offset="1" stop-color="#4B4B4B"/>
</linearGradient>
</defs>
</svg>
