<svg width="24" height="24" viewBox="0 0 24 24" fill="none" xmlns="http://www.w3.org/2000/svg">
<path d="M21.1908 7.09234L21.1906 7.09144C20.5987 5.08452 18.9164 3.40204 16.9096 2.80983C15.298 2.34115 14.3625 2.43767 13.7695 2.8805L21.1908 7.09234ZM21.1908 7.09234C21.6689 8.70198 21.5606 9.63103 21.1063 10.212L21.1062 10.2119M21.1908 7.09234L21.1062 10.2119M21.1062 10.2119L21.0997 10.2207M21.1062 10.2119L21.0997 10.2207M21.0997 10.2207C20.8306 10.5807 20.4414 10.7978 19.9869 10.9247C19.5287 11.0526 19.0348 11.08 18.6002 11.08H15.7302C14.7248 11.08 14.0502 10.7971 13.6177 10.314C13.1761 9.82067 12.9102 9.03375 12.9102 7.87V5.38C12.9102 4.45853 13.0377 3.42754 13.7693 2.88061L21.0997 10.2207Z" fill="#C3E6BD" stroke="#3DAE2B"/>
<path d="M18.5321 13.6875L18.532 13.6875L18.5376 13.6938C18.6993 13.8741 18.7757 14.1186 18.744 14.3664L18.7439 14.3667C18.4617 16.5777 17.2464 18.6152 15.4159 19.9455L15.4147 19.9465C14.0112 20.9731 12.3648 21.5 10.6599 21.5C10.1404 21.5 9.62339 21.4528 9.10796 21.3497L9.10796 21.3497L9.10247 21.3486C5.85454 20.7367 3.26295 18.1447 2.6512 14.9072L2.65119 14.9071C2.22633 12.6601 2.71686 10.4207 4.05409 8.58433L4.05436 8.58396C5.38472 6.75353 7.42222 5.53823 9.63321 5.25598L9.63513 5.25573C9.87266 5.22447 10.1264 5.30112 10.3061 5.46229L10.3061 5.46234L10.3124 5.46785C10.5016 5.63179 10.6099 5.87335 10.6099 6.12V9.7C10.6099 11.7361 12.2638 13.39 14.2999 13.39H17.8799C18.1266 13.39 18.3681 13.4983 18.5321 13.6875Z" fill="#C3E6BD" stroke="#3DAE2B"/>
</svg>
