<svg width="24" height="24" viewBox="0 0 24 24" fill="none" xmlns="http://www.w3.org/2000/svg">
<path d="M6.40328 6.40587L6.40329 6.40589L6.40704 6.40465L6.93104 6.23112C6.93166 6.23091 6.93216 6.23076 6.93255 6.23066C6.93514 6.23149 6.94314 6.23489 6.95277 6.24462C6.963 6.25495 6.96967 6.26706 6.97264 6.27734C6.97513 6.28596 6.97514 6.29297 6.97289 6.30101C6.91431 6.5103 6.85828 6.72755 6.80387 6.95242L6.80386 6.95242L6.80299 6.95613L5.82299 11.1461L5.82295 11.1463C5.25862 13.5627 5.36305 15.5455 6.316 17.0845C7.26888 18.6233 8.99807 19.6019 11.4142 20.1764L11.4165 20.177L11.7588 20.2566L10.9764 20.5141C10.9759 20.5143 10.9755 20.5144 10.975 20.5146C9.0372 21.1391 7.68142 21.1472 6.6776 20.6336C5.67338 20.1198 4.88541 19.0144 4.25542 17.0756C4.25541 17.0756 4.25539 17.0755 4.25538 17.0755L2.97573 13.1266C2.97569 13.1264 2.97565 13.1263 2.97562 13.1262C2.35056 11.1874 2.33997 9.82844 2.8517 8.82306C3.36306 7.8184 4.46544 7.03067 6.40328 6.40587Z" fill="#C3E6BD" stroke="#3DAE2B"/>
<path d="M15.3851 3.30657L15.3865 3.30689L17.0563 3.69685C17.0564 3.69687 17.0564 3.69688 17.0565 3.69689C19.1032 4.17563 20.3119 4.89395 20.9291 5.88859C21.5462 6.88327 21.6521 8.28396 21.1734 10.3259L20.1934 14.5059L20.1932 14.5067C19.7833 16.2682 19.1921 17.4136 18.4001 18.0914C17.625 18.7547 16.581 19.0339 15.108 18.8923L15.108 18.8922L15.1001 18.8916C14.6305 18.854 14.1167 18.7689 13.5575 18.6339L13.556 18.6336L11.876 18.2336L11.8757 18.2335C9.83839 17.7498 8.63119 17.0317 8.01367 16.0374C7.39651 15.0438 7.2884 13.6454 7.76698 11.6041L7.76704 11.6039L8.74689 7.41451C8.74692 7.41439 8.74695 7.41426 8.74698 7.41413C8.94209 6.58498 9.1715 5.88461 9.44885 5.32065L9.44886 5.32066L9.45033 5.31763C9.99087 4.19958 10.6906 3.54257 11.5995 3.22889C12.5317 2.90718 13.7557 2.92118 15.3851 3.30657ZM15.7735 13.4579L15.7736 13.458L15.7753 13.4513C15.9414 12.7868 15.5427 12.1026 14.8613 11.9349L11.9534 11.1954L11.9514 11.1949C11.2897 11.0295 10.6036 11.4247 10.4351 12.0987C10.2698 12.7601 10.6645 13.4459 11.3379 13.6148C11.3383 13.6149 11.3386 13.615 11.3389 13.6151L14.247 14.3546L14.2729 14.3612L14.2995 14.365C14.3056 14.3658 14.3125 14.3669 14.3202 14.368C14.3754 14.3762 14.4679 14.39 14.5602 14.39C15.1204 14.39 15.6238 14.0236 15.7735 13.4579ZM18.7035 10.0779L18.7036 10.078L18.7059 10.0685C18.8676 9.40583 18.4818 8.7114 17.7862 8.55359L12.9431 7.32533L12.9414 7.32492C12.2797 7.15949 11.5936 7.55471 11.4251 8.22873C11.2597 8.89018 11.6546 9.57596 12.328 9.74484C12.3283 9.74492 12.3286 9.74499 12.3289 9.74506L17.1773 10.9746L17.2031 10.9812L17.2295 10.985C17.2356 10.9858 17.2425 10.9869 17.2502 10.988C17.3054 10.9962 17.3979 11.01 17.4902 11.01C18.0504 11.01 18.5538 10.6436 18.7035 10.0779Z" fill="#C3E6BD" stroke="#3DAE2B"/>
</svg>
