<svg width="24" height="24" viewBox="0 0 24 24" fill="none" xmlns="http://www.w3.org/2000/svg">
<path d="M18.5832 6.29634L18.5839 6.29735C19.1481 7.14365 19.2515 8.11494 18.9411 8.8312L18.941 8.83117L18.9379 8.83883C18.8992 8.93221 18.8083 8.99 18.7099 8.99C18.6806 8.99 18.6466 8.98484 18.6056 8.96963C18.4827 8.9094 18.4272 8.7648 18.4796 8.63667C18.7587 7.99819 18.5723 7.18755 18.1659 6.58264C17.7722 5.98748 17.1061 5.46486 16.3792 5.49985C16.2302 5.49538 16.136 5.39736 16.1299 5.25409C16.1329 5.11148 16.2421 5.00377 16.3811 4.99988C17.2052 4.98447 18.0274 5.45818 18.5832 6.29634Z" fill="#C3E6BD" stroke="#3DAE2B"/>
<path d="M21.7575 9.96923L21.7575 9.96921L21.7527 9.96789C21.6224 9.93207 21.5448 9.80003 21.582 9.66329C22.0075 8.13906 21.6417 6.37055 20.6657 4.91194C19.6884 3.45137 18.1877 2.44393 16.6103 2.25363C16.4742 2.23685 16.38 2.11588 16.3965 1.98052C16.4142 1.83533 16.5488 1.74838 16.656 1.76446L16.6632 1.76555L16.6705 1.76642C18.3367 1.96673 19.9943 3.03237 21.0745 4.6479C22.1535 6.26173 22.5041 8.19147 22.0592 9.81309C22.0325 9.90045 21.9351 9.98 21.8201 9.98C21.8052 9.98 21.792 9.97909 21.7575 9.96923Z" fill="#C3E6BD" stroke="#3DAE2B"/>
<path d="M4.16988 11.73H4.57495L4.659 11.3338L4.939 10.0138L4.93902 10.0138L4.93988 10.0095C5.06471 9.39497 5.24359 8.90102 5.58236 8.55459C5.90506 8.2246 6.44252 7.96001 7.43988 7.96001H12.5699C13.5658 7.96001 14.1007 8.22626 14.4227 8.55734C14.7617 8.90598 14.9405 9.40126 15.0708 10.014L15.3508 11.3338L15.4348 11.73H15.8399H16.5799H16.5799C16.5801 11.73 16.582 11.73 16.586 11.7318C16.5905 11.7337 16.5967 11.7375 16.6029 11.7438C16.6161 11.7572 16.6199 11.771 16.6199 11.78C16.6199 11.7887 16.6164 11.8014 16.6038 11.814C16.5913 11.8265 16.5786 11.83 16.5699 11.83H3.42988C3.42116 11.83 3.40848 11.8265 3.39594 11.814C3.38339 11.8014 3.37988 11.7887 3.37988 11.78C3.37988 11.7713 3.38339 11.7586 3.39594 11.7461C3.40848 11.7335 3.42116 11.73 3.42988 11.73H4.16988Z" fill="#C3E6BD" stroke="#3DAE2B"/>
<path d="M16.9321 15.9557L16.9324 15.9581L17.362 20.4045C17.3621 20.405 17.3621 20.4056 17.3622 20.4061C17.3994 20.8277 17.2647 21.2378 16.9814 21.5522C16.6867 21.8682 16.2707 22.05 15.83 22.05H14.46C13.966 22.05 13.7528 21.915 13.6446 21.8062C13.516 21.6769 13.4531 21.508 13.3744 21.2719L13.3744 21.2719L13.3733 21.2687L13.2235 20.8294C13.2235 20.8293 13.2235 20.8293 13.2235 20.8293C13.221 20.8218 13.2184 20.8142 13.2158 20.8067C13.1741 20.6835 13.1305 20.555 13.0817 20.4479C13.0269 20.3278 12.9448 20.1856 12.8004 20.072C12.6538 19.9567 12.4916 19.9087 12.3452 19.8857C12.2055 19.8638 12.0463 19.86 11.88 19.86H8.14005C7.81983 19.86 7.46863 19.8801 7.20079 20.1037C7.06522 20.217 6.98518 20.3532 6.93068 20.4716C6.88244 20.5764 6.84112 20.6981 6.80373 20.8082C6.80136 20.8152 6.799 20.8222 6.79666 20.8291L6.64679 21.2687C6.56857 21.4981 6.5034 21.6701 6.37176 21.8024C6.26029 21.9145 6.04559 22.05 5.56005 22.05H4.19005C3.74071 22.05 3.33423 21.8692 3.03867 21.5522C2.75562 21.238 2.62056 20.8179 2.65797 20.4056C2.65798 20.4055 2.65798 20.4054 2.65799 20.4053L3.06794 15.9559L3.06796 15.9557C3.12231 15.3628 3.22317 14.8773 3.50591 14.5315C3.76563 14.2138 4.26184 13.92 5.34005 13.92H14.66C15.7383 13.92 16.2345 14.2138 16.4942 14.5315C16.7769 14.8773 16.8778 15.3628 16.9321 15.9557ZM5.62005 17.93H7.81005C8.38619 17.93 8.86005 17.4562 8.86005 16.88C8.86005 16.3039 8.38619 15.83 7.81005 15.83H5.62005C5.0439 15.83 4.57005 16.3039 4.57005 16.88C4.57005 17.4562 5.0439 17.93 5.62005 17.93ZM12.19 17.93H14.38C14.9562 17.93 15.43 17.4562 15.43 16.88C15.43 16.3039 14.9562 15.83 14.38 15.83H12.19C11.6139 15.83 11.14 16.3039 11.14 16.88C11.14 17.4562 11.6139 17.93 12.19 17.93Z" fill="#C3E6BD" stroke="#3DAE2B"/>
</svg>
